# xmcd CD database file
#
# Track frame offsets:
#	150
#	11396
#	20700
#	33528
#	45035
#	71740
#	85689
#	102987
#	118514
#	131214
#	145231
#	159924
#	171578
#	198583
#	216047
#	232474
#
# Disc length: 3329 seconds
#
# Revision: 0
# Processed by: cddbd v1.5.1PL2 Copyright (c) Steve Scherf et al.
# Submitted via: Feurio! 1.68 - http://www.feurio.com
#
DISCID=e20cff10
DTITLE=Monaco Blues Band -  - MBB -
DYEAR=1900
DGENRE=Blues
TTITLE0=It's Over
TTITLE1=Looking Back
TTITLE2=I'm A King Bee
TTITLE3=Drivin' Sideways
TTITLE4=Ramblin' On My Mind
TTITLE5=Born Under A Bad Sign
TTITLE6=Stoneshit
TTITLE7=Rollin' Man
TTITLE8=Fine Fine Fine
TTITLE9=All Your Love
TTITLE10=Oh What A Thrill
TTITLE11=The Nazz Are Blue
TTITLE12=* I Know You
TTITLE13=* Come Back
TTITLE14=* I'll Press Repeat
TTITLE15=* Do Things Right
EXTD=
EXTT0=
EXTT1=
EXTT2=
EXTT3=
EXTT4=
EXTT5=
EXTT6=
EXTT7=
EXTT8=
EXTT9=
EXTT10=
EXTT11=
EXTT12=
EXTT13=
EXTT14=
EXTT15=
PLAYORDER=
